<?xml version="1.0" encoding="UTF-8"?>
<svg xmlns="http://www.w3.org/2000/svg" xmlns:xlink="http://www.w3.org/1999/xlink" width="240.75pt" height="141.750002pt" viewBox="0 0 240.75 141.750002" version="1.2">
<defs>
<clipPath id="clip1">
  <path d="M 40 140 L 194 140 L 194 141.5 L 40 141.5 Z M 40 140 "/>
</clipPath>
<clipPath id="clip2">
  <path d="M 45 140 L 188 140 L 188 141.5 L 45 141.5 Z M 45 140 "/>
</clipPath>
<clipPath id="clip3">
  <path d="M 45 108 L 188 108 L 188 141.5 L 45 141.5 Z M 45 108 "/>
</clipPath>
<clipPath id="clip4">
  <path d="M 142 128 L 187 128 L 187 141.5 L 142 141.5 Z M 142 128 "/>
</clipPath>
<clipPath id="clip5">
  <path d="M 142 135 L 187 135 L 187 141.5 L 142 141.5 Z M 142 135 "/>
</clipPath>
<clipPath id="clip6">
  <path d="M 186 128 L 213 128 L 213 141.5 L 186 141.5 Z M 186 128 "/>
</clipPath>
<clipPath id="clip7">
  <path d="M 194 112 L 219.992188 112 L 219.992188 129 L 194 129 Z M 194 112 "/>
</clipPath>
<clipPath id="clip8">
  <path d="M 196 115 L 219.992188 115 L 219.992188 126 L 196 126 Z M 196 115 "/>
</clipPath>
<clipPath id="clip9">
  <path d="M 197 116 L 219.992188 116 L 219.992188 117 L 197 117 Z M 197 116 "/>
</clipPath>
<clipPath id="clip10">
  <path d="M 197 118 L 219.992188 118 L 219.992188 119 L 197 119 Z M 197 118 "/>
</clipPath>
<clipPath id="clip11">
  <path d="M 197 120 L 219.992188 120 L 219.992188 121 L 197 121 Z M 197 120 "/>
</clipPath>
<clipPath id="clip12">
  <path d="M 197 122 L 219.992188 122 L 219.992188 123 L 197 123 Z M 197 122 "/>
</clipPath>
<clipPath id="clip13">
  <path d="M 197 124 L 219.992188 124 L 219.992188 125 L 197 125 Z M 197 124 "/>
</clipPath>
<clipPath id="clip14">
  <path d="M 30 2.972656 L 138 2.972656 L 138 57 L 30 57 Z M 30 2.972656 "/>
</clipPath>
<clipPath id="clip15">
  <path d="M 30 2.972656 L 137 2.972656 L 137 55 L 30 55 Z M 30 2.972656 "/>
</clipPath>
<clipPath id="clip16">
  <path d="M 27.378906 83 L 30 83 L 30 94 L 27.378906 94 Z M 27.378906 83 "/>
</clipPath>
</defs>
<g id="surface1">
<g clip-path="url(#clip1)" clip-rule="nonzero">
<path style=" stroke:none;fill-rule:nonzero;fill:rgb(27.839661%,64.309692%,73.329163%);fill-opacity:1;" d="M 91.890625 148.601562 C 75.171875 148.601562 58.535156 148.601562 42.113281 148.601562 C 39.472656 148.601562 39.875 147.433594 40.46875 146.730469 C 42.230469 144.648438 43.992188 142.566406 45.757812 140.492188 C 45.753906 140.527344 45.753906 140.5625 45.753906 140.59375 L 45.753906 143.039062 C 46.011719 143.992188 47.382812 144.03125 47.617188 144.03125 C 47.640625 144.03125 47.652344 144.03125 47.652344 144.03125 L 145.125 144.03125 L 145.125 148.601562 C 127.417969 148.601562 109.609375 148.601562 91.890625 148.601562 M 189.433594 148.601562 L 189.433594 143.34375 L 190.328125 143.34375 C 191.324219 144.5 192.3125 145.660156 193.296875 146.824219 C 193.890625 147.527344 194.144531 148.601562 191.898438 148.601562 C 191.078125 148.601562 190.253906 148.601562 189.433594 148.601562 "/>
</g>
<path style=" stroke:none;fill-rule:nonzero;fill:rgb(10.198975%,10.978699%,13.328552%);fill-opacity:1;" d="M 164.460938 106.261719 C 164.460938 107.535156 163.425781 108.566406 162.15625 108.566406 L 71.582031 108.566406 C 70.3125 108.566406 69.277344 107.535156 69.277344 106.261719 L 69.277344 46.757812 C 69.277344 45.484375 70.3125 44.449219 71.582031 44.449219 L 162.15625 44.449219 C 163.425781 44.449219 164.460938 45.484375 164.460938 46.757812 L 164.460938 106.261719 "/>
<path style=" stroke:none;fill-rule:nonzero;fill:rgb(30.979919%,77.249146%,84.709167%);fill-opacity:1;" d="M 72.578125 104.648438 L 161.160156 104.648438 L 161.160156 48.371094 L 72.578125 48.371094 Z M 72.578125 104.648438 "/>
<path style=" stroke:none;fill-rule:nonzero;fill:rgb(55.688477%,85.488892%,90.589905%);fill-opacity:1;" d="M 128.296875 104.648438 L 72.578125 104.648438 L 72.578125 70.789062 L 90 65.96875 L 128.296875 104.648438 "/>
<g clip-path="url(#clip2)" clip-rule="nonzero">
<path style=" stroke:none;fill-rule:nonzero;fill:rgb(5.099487%,5.099487%,5.879211%);fill-opacity:1;" d="M 187.984375 140.59375 L 187.984375 142.9375 C 187.984375 142.9375 187.964844 144.03125 186.328125 144.03125 L 47.652344 144.03125 C 47.652344 144.03125 46.039062 144.082031 45.753906 143.039062 L 45.753906 140.59375 L 187.984375 140.59375 "/>
</g>
<g clip-path="url(#clip3)" clip-rule="nonzero">
<path style=" stroke:none;fill-rule:nonzero;fill:rgb(10.198975%,10.978699%,13.328552%);fill-opacity:1;" d="M 187.605469 139.730469 C 188.15625 140.4375 188.390625 141.507812 186.308594 141.507812 C 140.722656 141.507812 93.265625 141.507812 47.679688 141.507812 C 45.234375 141.507812 45.605469 140.34375 46.160156 139.640625 C 54.074219 129.511719 62.027344 119.53125 69.945312 109.402344 C 70.988281 108.566406 71.527344 108.570312 72.863281 108.570312 C 102.183594 108.566406 131.507812 108.570312 160.828125 108.570312 C 162.164062 108.570312 162.769531 108.871094 163.316406 109.574219 C 171.234375 119.703125 179.683594 129.601562 187.605469 139.730469 "/>
</g>
<path style=" stroke:none;fill-rule:nonzero;fill:rgb(17.649841%,20.388794%,25.489807%);fill-opacity:1;" d="M 176.339844 130.648438 C 176.933594 131.46875 175.722656 132.128906 173.632812 132.128906 C 135.773438 132.128906 97.917969 132.128906 60.058594 132.128906 C 57.96875 132.128906 56.753906 131.46875 57.351562 130.648438 C 62.441406 123.6875 64.984375 120.203125 70.070312 113.242188 C 70.664062 112.421875 72.425781 111.761719 74.003906 111.761719 C 102.566406 111.761719 131.125 111.761719 159.6875 111.761719 C 161.265625 111.761719 163.027344 112.421875 163.625 113.242188 C 168.707031 120.203125 171.253906 123.683594 176.339844 130.648438 "/>
<path style=" stroke:none;fill-rule:nonzero;fill:rgb(17.649841%,20.388794%,25.489807%);fill-opacity:1;" d="M 130.605469 138.078125 C 130.652344 138.320312 130.144531 138.511719 129.472656 138.511719 C 121.054688 138.511719 112.636719 138.511719 104.222656 138.515625 C 103.546875 138.515625 103.039062 138.320312 103.085938 138.078125 C 103.402344 136.433594 103.5625 135.609375 103.878906 133.964844 C 103.921875 133.722656 104.46875 133.527344 105.09375 133.527344 C 112.929688 133.527344 120.761719 133.527344 128.597656 133.527344 C 129.222656 133.527344 129.765625 133.722656 129.8125 133.964844 C 130.128906 135.609375 130.289062 136.433594 130.605469 138.078125 "/>
<path style=" stroke:none;fill-rule:nonzero;fill:rgb(30.979919%,34.899902%,43.919373%);fill-opacity:1;" d="M 74.316406 118.539062 C 72.394531 118.539062 71.433594 118.539062 69.511719 118.539062 C 70.265625 117.433594 70.644531 116.878906 71.398438 115.773438 C 73.242188 115.773438 74.167969 115.773438 76.011719 115.773438 C 75.335938 116.878906 74.996094 117.433594 74.316406 118.539062 "/>
<path style=" stroke:none;fill-rule:nonzero;fill:rgb(30.979919%,34.899902%,43.919373%);fill-opacity:1;" d="M 80.546875 118.539062 C 78.625 118.539062 77.664062 118.539062 75.742188 118.539062 C 76.398438 117.433594 76.722656 116.878906 77.378906 115.773438 C 79.222656 115.773438 80.148438 115.773438 81.992188 115.773438 C 81.417969 116.878906 81.125 117.433594 80.546875 118.539062 "/>
<path style=" stroke:none;fill-rule:nonzero;fill:rgb(30.979919%,34.899902%,43.919373%);fill-opacity:1;" d="M 78.777344 115.246094 C 75.96875 115.246094 74.566406 115.242188 71.761719 115.242188 C 72.042969 114.832031 72.183594 114.625 72.464844 114.210938 C 75.226562 114.210938 76.609375 114.210938 79.371094 114.210938 C 79.132812 114.625 79.011719 114.832031 78.777344 115.246094 "/>
<path style=" stroke:none;fill-rule:nonzero;fill:rgb(30.979919%,34.899902%,43.919373%);fill-opacity:1;" d="M 86.996094 115.242188 C 84.191406 115.242188 82.789062 115.246094 79.980469 115.246094 C 80.210938 114.832031 80.328125 114.625 80.558594 114.210938 C 83.320312 114.210938 84.699219 114.210938 87.460938 114.210938 C 87.273438 114.628906 87.183594 114.832031 86.996094 115.242188 "/>
<path style=" stroke:none;fill-rule:nonzero;fill:rgb(30.979919%,34.899902%,43.919373%);fill-opacity:1;" d="M 95.21875 115.246094 C 92.410156 115.246094 91.007812 115.246094 88.199219 115.246094 C 88.378906 114.832031 88.46875 114.625 88.648438 114.210938 C 91.410156 114.210938 92.792969 114.210938 95.554688 114.210938 C 95.417969 114.625 95.351562 114.832031 95.21875 115.246094 "/>
<path style=" stroke:none;fill-rule:nonzero;fill:rgb(30.979919%,34.899902%,43.919373%);fill-opacity:1;" d="M 103.4375 115.246094 C 100.632812 115.246094 99.230469 115.246094 96.421875 115.246094 C 96.550781 114.832031 96.613281 114.625 96.742188 114.210938 C 99.503906 114.210938 100.886719 114.210938 103.648438 114.210938 C 103.5625 114.625 103.523438 114.832031 103.4375 115.246094 "/>
<path style=" stroke:none;fill-rule:nonzero;fill:rgb(30.979919%,34.899902%,43.919373%);fill-opacity:1;" d="M 111.65625 115.246094 C 108.851562 115.246094 107.449219 115.246094 104.644531 115.246094 C 104.71875 114.832031 104.757812 114.625 104.832031 114.210938 C 107.597656 114.210938 108.976562 114.210938 111.738281 114.210938 C 111.703125 114.625 111.691406 114.832031 111.65625 115.246094 "/>
<path style=" stroke:none;fill-rule:nonzero;fill:rgb(30.979919%,34.899902%,43.919373%);fill-opacity:1;" d="M 119.878906 115.246094 C 117.070312 115.246094 115.667969 115.246094 112.863281 115.246094 C 112.890625 114.832031 112.902344 114.625 112.925781 114.210938 C 115.691406 114.210938 117.070312 114.210938 119.832031 114.210938 C 119.847656 114.625 119.859375 114.832031 119.878906 115.246094 "/>
<path style=" stroke:none;fill-rule:nonzero;fill:rgb(30.979919%,34.899902%,43.919373%);fill-opacity:1;" d="M 128.101562 115.246094 C 125.292969 115.246094 123.890625 115.246094 121.082031 115.246094 C 121.054688 114.832031 121.046875 114.625 121.015625 114.210938 C 123.78125 114.210938 125.160156 114.210938 127.921875 114.210938 C 127.992188 114.625 128.027344 114.832031 128.101562 115.246094 "/>
<path style=" stroke:none;fill-rule:nonzero;fill:rgb(30.979919%,34.899902%,43.919373%);fill-opacity:1;" d="M 136.320312 115.246094 C 133.515625 115.246094 132.109375 115.246094 129.304688 115.246094 C 129.226562 114.832031 129.1875 114.625 129.109375 114.210938 C 131.871094 114.210938 133.253906 114.210938 136.015625 114.210938 C 136.140625 114.625 136.199219 114.832031 136.320312 115.246094 "/>
<path style=" stroke:none;fill-rule:nonzero;fill:rgb(30.979919%,34.899902%,43.919373%);fill-opacity:1;" d="M 144.539062 115.246094 C 141.734375 115.246094 140.328125 115.246094 137.523438 115.246094 C 137.394531 114.832031 137.328125 114.625 137.199219 114.210938 C 139.964844 114.210938 141.34375 114.210938 144.105469 114.210938 C 144.28125 114.625 144.367188 114.832031 144.539062 115.246094 "/>
<path style=" stroke:none;fill-rule:nonzero;fill:rgb(30.979919%,34.899902%,43.919373%);fill-opacity:1;" d="M 152.757812 115.246094 C 149.953125 115.246094 148.550781 115.246094 145.746094 115.246094 C 145.5625 114.832031 145.472656 114.625 145.292969 114.210938 C 148.054688 114.210938 149.4375 114.210938 152.199219 114.210938 C 152.421875 114.625 152.535156 114.832031 152.757812 115.246094 "/>
<path style=" stroke:none;fill-rule:nonzero;fill:rgb(30.979919%,34.899902%,43.919373%);fill-opacity:1;" d="M 161.933594 115.246094 C 158.746094 115.246094 157.152344 115.246094 153.964844 115.246094 C 153.734375 114.832031 153.617188 114.625 153.386719 114.210938 C 156.523438 114.210938 158.09375 114.210938 161.226562 114.210938 C 161.511719 114.625 161.648438 114.832031 161.933594 115.246094 "/>
<path style=" stroke:none;fill-rule:nonzero;fill:rgb(30.979919%,34.899902%,43.919373%);fill-opacity:1;" d="M 86.773438 118.539062 C 84.851562 118.539062 83.890625 118.539062 81.96875 118.539062 C 82.527344 117.433594 82.804688 116.878906 83.359375 115.773438 C 85.203125 115.773438 86.125 115.773438 87.972656 115.773438 C 87.492188 116.878906 87.253906 117.433594 86.773438 118.539062 "/>
<path style=" stroke:none;fill-rule:nonzero;fill:rgb(30.979919%,34.899902%,43.919373%);fill-opacity:1;" d="M 93.007812 118.539062 C 91.082031 118.539062 90.121094 118.539062 88.199219 118.539062 C 88.652344 117.433594 88.878906 116.878906 89.335938 115.773438 C 91.183594 115.773438 92.109375 115.773438 93.957031 115.773438 C 93.574219 116.878906 93.386719 117.433594 93.007812 118.539062 "/>
<path style=" stroke:none;fill-rule:nonzero;fill:rgb(30.979919%,34.899902%,43.919373%);fill-opacity:1;" d="M 99.234375 118.539062 C 97.3125 118.539062 96.351562 118.539062 94.429688 118.539062 C 94.785156 117.433594 94.960938 116.882812 95.320312 115.773438 C 97.167969 115.773438 98.089844 115.773438 99.933594 115.773438 C 99.652344 116.878906 99.515625 117.433594 99.234375 118.539062 "/>
<path style=" stroke:none;fill-rule:nonzero;fill:rgb(30.979919%,34.899902%,43.919373%);fill-opacity:1;" d="M 105.460938 118.539062 C 103.539062 118.539062 102.578125 118.539062 100.65625 118.539062 C 100.914062 117.433594 101.042969 116.882812 101.300781 115.773438 C 103.144531 115.773438 104.066406 115.773438 105.914062 115.773438 C 105.734375 116.878906 105.640625 117.433594 105.460938 118.539062 "/>
<path style=" stroke:none;fill-rule:nonzero;fill:rgb(30.979919%,34.899902%,43.919373%);fill-opacity:1;" d="M 111.6875 118.539062 C 109.765625 118.539062 108.808594 118.539062 106.886719 118.539062 C 107.042969 117.433594 107.125 116.878906 107.28125 115.773438 C 109.125 115.773438 110.050781 115.773438 111.894531 115.773438 C 111.8125 116.878906 111.773438 117.433594 111.6875 118.539062 "/>
<path style=" stroke:none;fill-rule:nonzero;fill:rgb(30.979919%,34.899902%,43.919373%);fill-opacity:1;" d="M 117.917969 118.539062 C 115.996094 118.539062 115.035156 118.539062 113.113281 118.539062 C 113.171875 117.433594 113.203125 116.878906 113.261719 115.773438 C 115.109375 115.773438 116.03125 115.773438 117.875 115.773438 C 117.894531 116.878906 117.902344 117.433594 117.917969 118.539062 "/>
<path style=" stroke:none;fill-rule:nonzero;fill:rgb(30.979919%,34.899902%,43.919373%);fill-opacity:1;" d="M 124.148438 118.539062 C 122.226562 118.539062 121.265625 118.539062 119.34375 118.539062 C 119.304688 117.433594 119.285156 116.878906 119.246094 115.773438 C 121.089844 115.773438 122.011719 115.773438 123.855469 115.773438 C 123.96875 116.878906 124.03125 117.433594 124.148438 118.539062 "/>
<path style=" stroke:none;fill-rule:nonzero;fill:rgb(30.979919%,34.899902%,43.919373%);fill-opacity:1;" d="M 130.375 118.539062 C 128.453125 118.539062 127.492188 118.539062 125.570312 118.539062 C 125.429688 117.433594 125.363281 116.878906 125.222656 115.773438 C 127.066406 115.773438 127.992188 115.773438 129.835938 115.773438 C 130.050781 116.878906 130.160156 117.433594 130.375 118.539062 "/>
<path style=" stroke:none;fill-rule:nonzero;fill:rgb(30.979919%,34.899902%,43.919373%);fill-opacity:1;" d="M 72.058594 122.21875 C 70.035156 122.21875 69.023438 122.21875 66.996094 122.21875 C 67.753906 121.117188 68.128906 120.5625 68.882812 119.460938 C 70.832031 119.460938 71.804688 119.460938 73.753906 119.460938 C 73.074219 120.5625 72.734375 121.117188 72.058594 122.21875 "/>
<path style=" stroke:none;fill-rule:nonzero;fill:rgb(30.979919%,34.899902%,43.919373%);fill-opacity:1;" d="M 78.621094 122.21875 C 76.59375 122.21875 75.582031 122.21875 73.558594 122.21875 C 74.214844 121.117188 74.539062 120.5625 75.195312 119.460938 C 77.140625 119.460938 78.117188 119.460938 80.066406 119.460938 C 79.484375 120.5625 79.199219 121.117188 78.621094 122.21875 "/>
<path style=" stroke:none;fill-rule:nonzero;fill:rgb(30.979919%,34.899902%,43.919373%);fill-opacity:1;" d="M 85.179688 122.21875 C 83.152344 122.21875 82.140625 122.21875 80.117188 122.21875 C 80.671875 121.117188 80.949219 120.5625 81.507812 119.460938 C 83.453125 119.460938 84.429688 119.460938 86.375 119.460938 C 85.898438 120.5625 85.65625 121.117188 85.179688 122.21875 "/>
<path style=" stroke:none;fill-rule:nonzero;fill:rgb(30.979919%,34.899902%,43.919373%);fill-opacity:1;" d="M 91.738281 122.21875 C 89.710938 122.21875 88.699219 122.21875 86.675781 122.21875 C 87.132812 121.117188 87.359375 120.5625 87.816406 119.460938 C 89.765625 119.460938 90.738281 119.460938 92.691406 119.460938 C 92.308594 120.5625 92.117188 121.117188 91.738281 122.21875 "/>
<path style=" stroke:none;fill-rule:nonzero;fill:rgb(30.979919%,34.899902%,43.919373%);fill-opacity:1;" d="M 98.296875 122.21875 C 96.273438 122.21875 95.261719 122.21875 93.238281 122.21875 C 93.59375 121.117188 93.773438 120.5625 94.128906 119.460938 C 96.078125 119.460938 97.050781 119.460938 99 119.460938 C 98.71875 120.5625 98.578125 121.117188 98.296875 122.21875 "/>
<path style=" stroke:none;fill-rule:nonzero;fill:rgb(30.979919%,34.899902%,43.919373%);fill-opacity:1;" d="M 104.855469 122.21875 C 102.832031 122.21875 101.816406 122.21875 99.792969 122.21875 C 100.050781 121.117188 100.183594 120.5625 100.4375 119.460938 C 102.386719 119.460938 103.359375 119.460938 105.3125 119.460938 C 105.128906 120.566406 105.039062 121.117188 104.855469 122.21875 "/>
<path style=" stroke:none;fill-rule:nonzero;fill:rgb(30.979919%,34.899902%,43.919373%);fill-opacity:1;" d="M 111.417969 122.21875 C 109.390625 122.21875 108.378906 122.21875 106.355469 122.21875 C 106.511719 121.117188 106.59375 120.5625 106.753906 119.460938 C 108.703125 119.460938 109.671875 119.460938 111.621094 119.460938 C 111.539062 120.5625 111.5 121.117188 111.417969 122.21875 "/>
<path style=" stroke:none;fill-rule:nonzero;fill:rgb(30.979919%,34.899902%,43.919373%);fill-opacity:1;" d="M 117.976562 122.21875 C 115.953125 122.21875 114.9375 122.21875 112.914062 122.21875 C 112.972656 121.117188 113.003906 120.5625 113.0625 119.460938 C 115.011719 119.460938 115.984375 119.460938 117.933594 119.460938 C 117.949219 120.5625 117.960938 121.117188 117.976562 122.21875 "/>
<path style=" stroke:none;fill-rule:nonzero;fill:rgb(30.979919%,34.899902%,43.919373%);fill-opacity:1;" d="M 124.535156 122.21875 C 122.511719 122.21875 121.503906 122.21875 119.476562 122.21875 C 119.4375 121.117188 119.417969 120.5625 119.378906 119.460938 C 121.324219 119.460938 122.296875 119.460938 124.242188 119.460938 C 124.359375 120.5625 124.417969 121.117188 124.535156 122.21875 "/>
<path style=" stroke:none;fill-rule:nonzero;fill:rgb(30.979919%,34.899902%,43.919373%);fill-opacity:1;" d="M 131.09375 122.21875 C 129.070312 122.21875 128.058594 122.21875 126.035156 122.21875 C 125.894531 121.117188 125.824219 120.5625 125.683594 119.460938 C 127.632812 119.460938 128.605469 119.460938 130.554688 119.460938 C 130.769531 120.5625 130.878906 121.117188 131.09375 122.21875 "/>
<path style=" stroke:none;fill-rule:nonzero;fill:rgb(30.979919%,34.899902%,43.919373%);fill-opacity:1;" d="M 69.796875 125.90625 C 67.671875 125.90625 66.609375 125.90625 64.484375 125.90625 C 65.238281 124.800781 65.613281 124.246094 66.367188 123.144531 C 68.417969 123.144531 69.441406 123.144531 71.492188 123.144531 C 70.816406 124.246094 70.476562 124.800781 69.796875 125.90625 "/>
<path style=" stroke:none;fill-rule:nonzero;fill:rgb(30.979919%,34.899902%,43.919373%);fill-opacity:1;" d="M 76.691406 125.90625 C 74.5625 125.90625 73.5 125.90625 71.371094 125.90625 C 72.027344 124.800781 72.355469 124.246094 73.011719 123.144531 C 75.0625 123.144531 76.085938 123.144531 78.136719 123.144531 C 77.558594 124.246094 77.269531 124.800781 76.691406 125.90625 "/>
<path style=" stroke:none;fill-rule:nonzero;fill:rgb(30.979919%,34.899902%,43.919373%);fill-opacity:1;" d="M 83.582031 125.90625 C 81.453125 125.90625 80.390625 125.90625 78.265625 125.90625 C 78.820312 124.800781 79.097656 124.246094 79.652344 123.144531 C 81.703125 123.144531 82.730469 123.144531 84.777344 123.144531 C 84.296875 124.246094 84.058594 124.800781 83.582031 125.90625 "/>
<path style=" stroke:none;fill-rule:nonzero;fill:rgb(30.979919%,34.899902%,43.919373%);fill-opacity:1;" d="M 90.472656 125.90625 C 88.34375 125.90625 87.28125 125.90625 85.15625 125.90625 C 85.609375 124.800781 85.835938 124.246094 86.292969 123.144531 C 88.34375 123.144531 89.371094 123.144531 91.421875 123.144531 C 91.042969 124.246094 90.851562 124.800781 90.472656 125.90625 "/>
<path style=" stroke:none;fill-rule:nonzero;fill:rgb(30.979919%,34.899902%,43.919373%);fill-opacity:1;" d="M 97.363281 125.90625 C 95.234375 125.90625 94.171875 125.90625 92.046875 125.90625 C 92.402344 124.800781 92.582031 124.246094 92.9375 123.144531 C 94.988281 123.144531 96.015625 123.144531 98.0625 123.144531 C 97.78125 124.246094 97.644531 124.800781 97.363281 125.90625 "/>
<path style=" stroke:none;fill-rule:nonzero;fill:rgb(30.979919%,34.899902%,43.919373%);fill-opacity:1;" d="M 104.253906 125.90625 C 102.125 125.90625 101.058594 125.90625 98.933594 125.90625 C 99.191406 124.800781 99.320312 124.246094 99.578125 123.144531 C 101.628906 123.144531 102.652344 123.144531 104.703125 123.144531 C 104.523438 124.246094 104.433594 124.800781 104.253906 125.90625 "/>
<path style=" stroke:none;fill-rule:nonzero;fill:rgb(30.979919%,34.899902%,43.919373%);fill-opacity:1;" d="M 111.140625 125.90625 C 109.015625 125.90625 107.949219 125.90625 105.828125 125.90625 C 105.984375 124.800781 106.066406 124.246094 106.222656 123.144531 C 108.273438 123.144531 109.296875 123.144531 111.347656 123.144531 C 111.265625 124.246094 111.222656 124.800781 111.140625 125.90625 "/>
<path style=" stroke:none;fill-rule:nonzero;fill:rgb(30.979919%,34.899902%,43.919373%);fill-opacity:1;" d="M 118.035156 125.90625 C 115.90625 125.90625 114.84375 125.90625 112.714844 125.90625 C 112.777344 124.800781 112.804688 124.246094 112.863281 123.144531 C 114.914062 123.144531 115.941406 123.144531 117.992188 123.144531 C 118.007812 124.246094 118.015625 124.800781 118.035156 125.90625 "/>
<path style=" stroke:none;fill-rule:nonzero;fill:rgb(30.979919%,34.899902%,43.919373%);fill-opacity:1;" d="M 124.921875 125.90625 C 122.796875 125.90625 121.734375 125.90625 119.609375 125.90625 C 119.570312 124.800781 119.550781 124.246094 119.511719 123.144531 C 121.558594 123.144531 122.582031 123.144531 124.632812 123.144531 C 124.75 124.246094 124.804688 124.800781 124.921875 125.90625 "/>
<path style=" stroke:none;fill-rule:nonzero;fill:rgb(30.979919%,34.899902%,43.919373%);fill-opacity:1;" d="M 131.8125 125.90625 C 129.6875 125.90625 128.621094 125.90625 126.496094 125.90625 C 126.359375 124.800781 126.289062 124.246094 126.148438 123.144531 C 128.199219 123.144531 129.222656 123.144531 131.273438 123.144531 C 131.488281 124.246094 131.597656 124.800781 131.8125 125.90625 "/>
<path style=" stroke:none;fill-rule:nonzero;fill:rgb(30.979919%,34.899902%,43.919373%);fill-opacity:1;" d="M 67.539062 129.589844 C 65.3125 129.589844 64.199219 129.589844 61.96875 129.589844 C 62.722656 128.484375 63.097656 127.929688 63.855469 126.824219 C 66.007812 126.824219 67.082031 126.824219 69.234375 126.824219 C 68.554688 127.929688 68.21875 128.484375 67.539062 129.589844 "/>
<path style=" stroke:none;fill-rule:nonzero;fill:rgb(30.979919%,34.899902%,43.919373%);fill-opacity:1;" d="M 74.761719 129.589844 C 72.535156 129.589844 71.417969 129.589844 69.191406 129.589844 C 69.847656 128.484375 70.171875 127.929688 70.828125 126.824219 C 72.980469 126.824219 74.058594 126.824219 76.210938 126.824219 C 75.628906 127.929688 75.339844 128.484375 74.761719 129.589844 "/>
<path style=" stroke:none;fill-rule:nonzero;fill:rgb(30.979919%,34.899902%,43.919373%);fill-opacity:1;" d="M 81.980469 129.589844 C 79.753906 129.589844 78.640625 129.589844 76.410156 129.589844 C 76.96875 128.484375 77.246094 127.929688 77.800781 126.824219 C 79.953125 126.824219 81.027344 126.824219 83.179688 126.824219 C 82.703125 127.929688 82.460938 128.484375 81.980469 129.589844 "/>
<path style=" stroke:none;fill-rule:nonzero;fill:rgb(30.979919%,34.899902%,43.919373%);fill-opacity:1;" d="M 89.175781 129.675781 C 86.941406 129.675781 85.828125 129.675781 83.597656 129.675781 C 84.066406 128.535156 84.300781 127.964844 84.773438 126.824219 C 86.925781 126.824219 88.003906 126.824219 90.15625 126.824219 C 89.765625 127.964844 89.566406 128.535156 89.175781 129.675781 "/>
<path style=" stroke:none;fill-rule:nonzero;fill:rgb(30.979919%,34.899902%,43.919373%);fill-opacity:1;" d="M 132.53125 129.589844 C 118.640625 129.589844 104.746094 129.589844 90.851562 129.589844 C 91.210938 128.484375 91.390625 127.929688 91.746094 126.824219 C 105.160156 126.824219 118.578125 126.824219 131.992188 126.824219 C 132.207031 127.929688 132.316406 128.484375 132.53125 129.589844 "/>
<path style=" stroke:none;fill-rule:nonzero;fill:rgb(30.979919%,34.899902%,43.919373%);fill-opacity:1;" d="M 136.011719 118.539062 C 134.089844 118.539062 133.125 118.539062 131.203125 118.539062 C 130.976562 117.433594 130.859375 116.878906 130.632812 115.773438 C 132.480469 115.773438 133.398438 115.773438 135.246094 115.773438 C 135.550781 116.878906 135.707031 117.433594 136.011719 118.539062 "/>
<path style=" stroke:none;fill-rule:nonzero;fill:rgb(30.979919%,34.899902%,43.919373%);fill-opacity:1;" d="M 137.027344 122.21875 C 135.003906 122.21875 133.992188 122.21875 131.96875 122.21875 C 131.738281 121.117188 131.625 120.5625 131.394531 119.460938 C 133.34375 119.460938 134.320312 119.460938 136.265625 119.460938 C 136.570312 120.5625 136.726562 121.117188 137.027344 122.21875 "/>
<path style=" stroke:none;fill-rule:nonzero;fill:rgb(30.979919%,34.899902%,43.919373%);fill-opacity:1;" d="M 138.046875 125.90625 C 135.921875 125.90625 134.855469 125.90625 132.730469 125.90625 C 132.503906 124.800781 132.386719 124.246094 132.160156 123.144531 C 134.207031 123.144531 135.234375 123.144531 137.285156 123.144531 C 137.589844 124.246094 137.742188 124.800781 138.046875 125.90625 "/>
<path style=" stroke:none;fill-rule:nonzero;fill:rgb(30.979919%,34.899902%,43.919373%);fill-opacity:1;" d="M 139.066406 129.589844 C 136.835938 129.589844 135.722656 129.589844 133.492188 129.589844 C 133.265625 128.484375 133.148438 127.929688 132.921875 126.824219 C 135.074219 126.824219 136.148438 126.824219 138.300781 126.824219 C 138.605469 127.929688 138.761719 128.484375 139.066406 129.589844 "/>
<path style=" stroke:none;fill-rule:nonzero;fill:rgb(30.979919%,34.899902%,43.919373%);fill-opacity:1;" d="M 141.644531 118.539062 C 139.722656 118.539062 138.761719 118.539062 136.835938 118.539062 C 136.519531 117.433594 136.359375 116.882812 136.042969 115.773438 C 137.886719 115.773438 138.808594 115.773438 140.65625 115.773438 C 141.050781 116.878906 141.25 117.433594 141.644531 118.539062 "/>
<path style=" stroke:none;fill-rule:nonzero;fill:rgb(30.979919%,34.899902%,43.919373%);fill-opacity:1;" d="M 142.960938 122.21875 C 140.9375 122.21875 139.925781 122.21875 137.902344 122.21875 C 137.582031 121.117188 137.421875 120.5625 137.105469 119.460938 C 139.050781 119.460938 140.027344 119.460938 141.976562 119.460938 C 142.371094 120.5625 142.566406 121.117188 142.960938 122.21875 "/>
<path style=" stroke:none;fill-rule:nonzero;fill:rgb(30.979919%,34.899902%,43.919373%);fill-opacity:1;" d="M 144.277344 125.90625 C 142.152344 125.90625 141.089844 125.90625 138.960938 125.90625 C 138.644531 124.800781 138.484375 124.246094 138.164062 123.144531 C 140.214844 123.144531 141.242188 123.144531 143.289062 123.144531 C 143.6875 124.246094 143.882812 124.800781 144.277344 125.90625 "/>
<path style=" stroke:none;fill-rule:nonzero;fill:rgb(30.979919%,34.899902%,43.919373%);fill-opacity:1;" d="M 145.597656 129.589844 C 143.367188 129.589844 142.253906 129.589844 140.023438 129.589844 C 139.707031 128.484375 139.546875 127.929688 139.226562 126.824219 C 141.378906 126.824219 142.457031 126.824219 144.609375 126.824219 C 145.003906 127.929688 145.199219 128.484375 145.597656 129.589844 "/>
<path style=" stroke:none;fill-rule:nonzero;fill:rgb(30.979919%,34.899902%,43.919373%);fill-opacity:1;" d="M 147.28125 118.539062 C 145.359375 118.539062 144.394531 118.539062 142.472656 118.539062 C 142.066406 117.433594 141.863281 116.878906 141.453125 115.773438 C 143.296875 115.773438 144.21875 115.773438 146.066406 115.773438 C 146.550781 116.878906 146.792969 117.433594 147.28125 118.539062 "/>
<path style=" stroke:none;fill-rule:nonzero;fill:rgb(30.979919%,34.899902%,43.919373%);fill-opacity:1;" d="M 148.894531 122.21875 C 146.871094 122.21875 145.859375 122.21875 143.835938 122.21875 C 143.429688 121.117188 143.222656 120.5625 142.8125 119.460938 C 144.761719 119.460938 145.734375 119.460938 147.683594 119.460938 C 148.167969 120.5625 148.410156 121.117188 148.894531 122.21875 "/>
<path style=" stroke:none;fill-rule:nonzero;fill:rgb(30.979919%,34.899902%,43.919373%);fill-opacity:1;" d="M 150.511719 125.90625 C 148.386719 125.90625 147.324219 125.90625 145.195312 125.90625 C 144.789062 124.800781 144.585938 124.246094 144.175781 123.144531 C 146.226562 123.144531 147.25 123.144531 149.300781 123.144531 C 149.785156 124.246094 150.027344 124.800781 150.511719 125.90625 "/>
<path style=" stroke:none;fill-rule:nonzero;fill:rgb(30.979919%,34.899902%,43.919373%);fill-opacity:1;" d="M 152.128906 129.589844 C 149.902344 129.589844 148.785156 129.589844 146.558594 129.589844 C 146.148438 128.484375 145.941406 127.929688 145.535156 126.824219 C 147.6875 126.824219 148.765625 126.824219 150.917969 126.824219 C 151.402344 127.929688 151.644531 128.484375 152.128906 129.589844 "/>
<path style=" stroke:none;fill-rule:nonzero;fill:rgb(30.979919%,34.899902%,43.919373%);fill-opacity:1;" d="M 152.914062 118.539062 C 150.992188 118.539062 150.03125 118.539062 148.105469 118.539062 C 147.609375 117.433594 147.359375 116.878906 146.863281 115.773438 C 148.707031 115.773438 149.632812 115.773438 151.476562 115.773438 C 152.050781 116.878906 152.335938 117.433594 152.914062 118.539062 "/>
<path style=" stroke:none;fill-rule:nonzero;fill:rgb(30.979919%,34.899902%,43.919373%);fill-opacity:1;" d="M 154.828125 122.21875 C 152.804688 122.21875 151.792969 122.21875 149.769531 122.21875 C 149.269531 121.117188 149.023438 120.5625 148.523438 119.460938 C 150.46875 119.460938 151.445312 119.460938 153.390625 119.460938 C 153.964844 120.5625 154.253906 121.117188 154.828125 122.21875 "/>
<path style=" stroke:none;fill-rule:nonzero;fill:rgb(30.979919%,34.899902%,43.919373%);fill-opacity:1;" d="M 156.746094 125.90625 C 154.621094 125.90625 153.554688 125.90625 151.429688 125.90625 C 150.929688 124.800781 150.683594 124.246094 150.183594 123.144531 C 152.234375 123.144531 153.257812 123.144531 155.308594 123.144531 C 155.882812 124.246094 156.171875 124.800781 156.746094 125.90625 "/>
<path style=" stroke:none;fill-rule:nonzero;fill:rgb(30.979919%,34.899902%,43.919373%);fill-opacity:1;" d="M 158.660156 129.589844 C 156.433594 129.589844 155.320312 129.589844 153.089844 129.589844 C 152.589844 128.484375 152.34375 127.929688 151.84375 126.824219 C 153.996094 126.824219 155.070312 126.824219 157.222656 126.824219 C 157.800781 127.929688 158.085938 128.484375 158.660156 129.589844 "/>
<path style=" stroke:none;fill-rule:nonzero;fill:rgb(30.979919%,34.899902%,43.919373%);fill-opacity:1;" d="M 158.546875 118.539062 C 156.625 118.539062 155.664062 118.539062 153.742188 118.539062 C 153.152344 117.433594 152.859375 116.878906 152.269531 115.773438 C 154.117188 115.773438 155.039062 115.773438 156.886719 115.773438 C 157.550781 116.878906 157.882812 117.433594 158.546875 118.539062 "/>
<path style=" stroke:none;fill-rule:nonzero;fill:rgb(30.979919%,34.899902%,43.919373%);fill-opacity:1;" d="M 160.761719 122.21875 C 158.738281 122.21875 157.722656 122.21875 155.699219 122.21875 C 155.113281 121.117188 154.820312 120.5625 154.230469 119.460938 C 156.179688 119.460938 157.152344 119.460938 159.101562 119.460938 C 159.765625 120.5625 160.097656 121.117188 160.761719 122.21875 "/>
<path style=" stroke:none;fill-rule:nonzero;fill:rgb(30.979919%,34.899902%,43.919373%);fill-opacity:1;" d="M 162.980469 125.90625 C 160.851562 125.90625 159.785156 125.90625 157.664062 125.90625 C 157.070312 124.800781 156.777344 124.246094 156.191406 123.144531 C 158.242188 123.144531 159.265625 123.144531 161.316406 123.144531 C 161.980469 124.246094 162.3125 124.800781 162.980469 125.90625 "/>
<path style=" stroke:none;fill-rule:nonzero;fill:rgb(30.979919%,34.899902%,43.919373%);fill-opacity:1;" d="M 165.191406 129.589844 C 162.964844 129.589844 161.847656 129.589844 159.621094 129.589844 C 159.03125 128.484375 158.738281 127.929688 158.148438 126.824219 C 160.300781 126.824219 161.378906 126.824219 163.53125 126.824219 C 164.195312 127.929688 164.527344 128.484375 165.191406 129.589844 "/>
<path style=" stroke:none;fill-rule:nonzero;fill:rgb(30.979919%,34.899902%,43.919373%);fill-opacity:1;" d="M 164.179688 118.539062 C 162.257812 118.539062 161.296875 118.539062 159.375 118.539062 C 158.695312 117.433594 158.359375 116.878906 157.679688 115.773438 C 159.527344 115.773438 160.449219 115.773438 162.292969 115.773438 C 163.046875 116.878906 163.425781 117.433594 164.179688 118.539062 "/>
<path style=" stroke:none;fill-rule:nonzero;fill:rgb(30.979919%,34.899902%,43.919373%);fill-opacity:1;" d="M 166.695312 122.21875 C 164.671875 122.21875 163.660156 122.21875 161.632812 122.21875 C 160.957031 121.117188 160.617188 120.5625 159.941406 119.460938 C 161.886719 119.460938 162.859375 119.460938 164.808594 119.460938 C 165.5625 120.5625 165.941406 121.117188 166.695312 122.21875 "/>
<path style=" stroke:none;fill-rule:nonzero;fill:rgb(30.979919%,34.899902%,43.919373%);fill-opacity:1;" d="M 169.207031 125.90625 C 167.082031 125.90625 166.019531 125.90625 163.894531 125.90625 C 163.214844 124.800781 162.875 124.246094 162.199219 123.144531 C 164.25 123.144531 165.273438 123.144531 167.324219 123.144531 C 168.078125 124.246094 168.453125 124.800781 169.207031 125.90625 "/>
<path style=" stroke:none;fill-rule:nonzero;fill:rgb(30.979919%,34.899902%,43.919373%);fill-opacity:1;" d="M 171.726562 129.589844 C 169.492188 129.589844 168.382812 129.589844 166.152344 129.589844 C 165.476562 128.484375 165.132812 127.929688 164.457031 126.824219 C 166.609375 126.824219 167.683594 126.824219 169.835938 126.824219 C 170.589844 127.929688 170.96875 128.484375 171.726562 129.589844 "/>
<g clip-path="url(#clip4)" clip-rule="nonzero">
<path style=" stroke:none;fill-rule:nonzero;fill:rgb(23.529053%,74.508667%,76.858521%);fill-opacity:1;" d="M 142.414062 143.34375 L 186.722656 143.34375 L 186.722656 128.078125 L 142.414062 128.078125 Z M 142.414062 143.34375 "/>
</g>
<g clip-path="url(#clip5)" clip-rule="nonzero">
<path style=" stroke:none;fill-rule:nonzero;fill:rgb(19.219971%,61.178589%,63.529968%);fill-opacity:1;" d="M 142.414062 143.34375 L 186.722656 143.34375 L 186.722656 135.710938 L 142.414062 135.710938 Z M 142.414062 143.34375 "/>
</g>
<g clip-path="url(#clip6)" clip-rule="nonzero">
<path style=" stroke:none;fill-rule:nonzero;fill:rgb(18.818665%,59.21936%,61.569214%);fill-opacity:1;" d="M 186.722656 143.34375 L 212.300781 143.34375 L 212.300781 128.078125 L 186.722656 128.078125 Z M 186.722656 143.34375 "/>
</g>
<path style=" stroke:none;fill-rule:nonzero;fill:rgb(100%,100%,100%);fill-opacity:1;" d="M 212.300781 140.960938 L 189.078125 140.960938 L 189.078125 130.457031 L 212.300781 130.457031 L 212.300781 140.960938 "/>
<path style=" stroke:none;fill-rule:nonzero;fill:rgb(87.059021%,86.669922%,87.059021%);fill-opacity:1;" d="M 190.148438 132.035156 L 212.300781 132.035156 L 212.300781 131.589844 L 190.148438 131.589844 Z M 190.148438 132.035156 "/>
<path style=" stroke:none;fill-rule:nonzero;fill:rgb(87.059021%,86.669922%,87.059021%);fill-opacity:1;" d="M 190.148438 133.980469 L 212.300781 133.980469 L 212.300781 133.539062 L 190.148438 133.539062 Z M 190.148438 133.980469 "/>
<path style=" stroke:none;fill-rule:nonzero;fill:rgb(87.059021%,86.669922%,87.059021%);fill-opacity:1;" d="M 190.148438 135.929688 L 212.300781 135.929688 L 212.300781 135.488281 L 190.148438 135.488281 Z M 190.148438 135.929688 "/>
<path style=" stroke:none;fill-rule:nonzero;fill:rgb(87.059021%,86.669922%,87.059021%);fill-opacity:1;" d="M 190.148438 137.878906 L 212.300781 137.878906 L 212.300781 137.4375 L 190.148438 137.4375 Z M 190.148438 137.878906 "/>
<path style=" stroke:none;fill-rule:nonzero;fill:rgb(87.059021%,86.669922%,87.059021%);fill-opacity:1;" d="M 190.148438 139.828125 L 212.300781 139.828125 L 212.300781 139.386719 L 190.148438 139.386719 Z M 190.148438 139.828125 "/>
<path style=" stroke:none;fill-rule:nonzero;fill:rgb(100%,100%,100%);fill-opacity:1;" d="M 157.039062 138.632812 L 144.625 138.632812 L 144.625 132.785156 L 157.039062 132.785156 L 157.039062 138.632812 "/>
<path style=" stroke:none;fill-rule:nonzero;fill:rgb(56.858826%,28.62854%,66.668701%);fill-opacity:1;" d="M 149.976562 128.078125 L 194.285156 128.078125 L 194.285156 112.8125 L 149.976562 112.8125 Z M 149.976562 128.078125 "/>
<path style=" stroke:none;fill-rule:nonzero;fill:rgb(47.059631%,23.529053%,54.119873%);fill-opacity:1;" d="M 194.285156 128.078125 L 149.976562 128.078125 L 149.976562 120.445312 L 194.285156 120.445312 L 194.285156 128.078125 "/>
<g clip-path="url(#clip7)" clip-rule="nonzero">
<path style=" stroke:none;fill-rule:nonzero;fill:rgb(39.99939%,29.798889%,66.668701%);fill-opacity:1;" d="M 219.867188 128.078125 L 194.285156 128.078125 L 194.285156 112.8125 L 219.867188 112.8125 L 219.867188 128.078125 "/>
</g>
<g clip-path="url(#clip8)" clip-rule="nonzero">
<path style=" stroke:none;fill-rule:nonzero;fill:rgb(100%,100%,100%);fill-opacity:1;" d="M 219.867188 125.695312 L 196.640625 125.695312 L 196.640625 115.195312 L 219.867188 115.195312 L 219.867188 125.695312 "/>
</g>
<g clip-path="url(#clip9)" clip-rule="nonzero">
<path style=" stroke:none;fill-rule:nonzero;fill:rgb(87.059021%,86.669922%,87.059021%);fill-opacity:1;" d="M 197.710938 116.769531 L 219.867188 116.769531 L 219.867188 116.324219 L 197.710938 116.324219 Z M 197.710938 116.769531 "/>
</g>
<g clip-path="url(#clip10)" clip-rule="nonzero">
<path style=" stroke:none;fill-rule:nonzero;fill:rgb(87.059021%,86.669922%,87.059021%);fill-opacity:1;" d="M 197.710938 118.71875 L 219.867188 118.71875 L 219.867188 118.273438 L 197.710938 118.273438 Z M 197.710938 118.71875 "/>
</g>
<g clip-path="url(#clip11)" clip-rule="nonzero">
<path style=" stroke:none;fill-rule:nonzero;fill:rgb(87.059021%,86.669922%,87.059021%);fill-opacity:1;" d="M 197.710938 120.667969 L 219.867188 120.667969 L 219.867188 120.222656 L 197.710938 120.222656 Z M 197.710938 120.667969 "/>
</g>
<g clip-path="url(#clip12)" clip-rule="nonzero">
<path style=" stroke:none;fill-rule:nonzero;fill:rgb(87.059021%,86.669922%,87.059021%);fill-opacity:1;" d="M 197.710938 122.613281 L 219.867188 122.613281 L 219.867188 122.171875 L 197.710938 122.171875 Z M 197.710938 122.613281 "/>
</g>
<g clip-path="url(#clip13)" clip-rule="nonzero">
<path style=" stroke:none;fill-rule:nonzero;fill:rgb(87.059021%,86.669922%,87.059021%);fill-opacity:1;" d="M 197.710938 124.5625 L 219.867188 124.5625 L 219.867188 124.121094 L 197.710938 124.121094 Z M 197.710938 124.5625 "/>
</g>
<path style=" stroke:none;fill-rule:nonzero;fill:rgb(100%,100%,100%);fill-opacity:1;" d="M 164.601562 123.367188 L 152.1875 123.367188 L 152.1875 117.519531 L 164.601562 117.519531 L 164.601562 123.367188 "/>
<path style=" stroke:none;fill-rule:nonzero;fill:rgb(10.198975%,10.978699%,13.328552%);fill-opacity:1;" d="M 161.222656 98.339844 L 205.828125 102.484375 C 205.828125 102.484375 213.644531 102.785156 213.777344 108.773438 C 213.777344 108.773438 214.183594 112.683594 211.707031 113.105469 C 211.707031 113.105469 209.363281 112.925781 210.03125 110.449219 C 210.070312 110.320312 210.351562 110.09375 210.429688 109.980469 C 210.691406 109.605469 210.898438 109.179688 210.953125 108.722656 C 211.238281 106.433594 208.320312 105.636719 206.621094 105.335938 C 205.847656 105.195312 205.0625 105.136719 204.277344 105.070312 L 160.890625 101.257812 L 161.222656 98.339844 "/>
<path style=" stroke:none;fill-rule:nonzero;fill:rgb(10.198975%,10.978699%,13.328552%);fill-opacity:1;" d="M 212.222656 98.339844 L 167.617188 102.484375 C 167.617188 102.484375 159.800781 102.785156 159.664062 108.773438 C 159.664062 108.773438 159.261719 112.683594 161.738281 113.105469 C 161.738281 113.105469 164.082031 112.925781 163.414062 110.449219 C 163.375 110.320312 163.09375 110.09375 163.015625 109.980469 C 162.753906 109.605469 162.546875 109.179688 162.492188 108.722656 C 162.207031 106.433594 165.125 105.636719 166.824219 105.335938 C 167.597656 105.195312 168.382812 105.136719 169.167969 105.070312 L 212.550781 101.257812 L 212.222656 98.339844 "/>
<path style=" stroke:none;fill-rule:nonzero;fill:rgb(10.198975%,10.978699%,13.328552%);fill-opacity:1;" d="M 208.6875 101.964844 C 208.6875 101.964844 208.207031 109.746094 202.167969 111.332031 C 201.039062 111.625 199.839844 111.667969 198.683594 111.5625 C 196.167969 111.328125 193.773438 110.09375 192.304688 107.886719 C 191.46875 106.628906 190.851562 105.148438 190.566406 103.644531 C 190.253906 102.027344 190.03125 99.78125 192.285156 98.941406 C 192.285156 98.941406 198.34375 97.003906 205.636719 98.652344 C 205.636719 98.652344 208.996094 99.265625 208.6875 101.964844 M 183.410156 103.644531 C 183.121094 105.148438 182.507812 106.628906 181.667969 107.886719 C 180.203125 110.09375 177.808594 111.328125 175.292969 111.5625 C 174.136719 111.667969 172.9375 111.625 171.808594 111.332031 C 165.769531 109.746094 165.289062 101.964844 165.289062 101.964844 C 164.976562 99.265625 168.34375 98.652344 168.34375 98.652344 C 175.628906 97.003906 181.691406 98.941406 181.691406 98.941406 C 183.945312 99.78125 183.722656 102.027344 183.410156 103.644531 M 213.230469 100.5 L 213.230469 99.09375 C 213.230469 98.390625 212.476562 98.230469 212.476562 98.230469 C 210.910156 97.796875 208.890625 97.328125 208.890625 97.328125 C 199.136719 94.953125 192.167969 97.039062 192.152344 97.039062 C 192.152344 97.039062 190.03125 97.472656 188.660156 99.632812 C 187.859375 100.898438 186.09375 100.96875 185.3125 99.632812 C 183.945312 97.472656 181.820312 97.039062 181.820312 97.039062 C 181.804688 97.039062 174.839844 94.953125 165.082031 97.328125 C 165.082031 97.328125 163.070312 97.796875 161.5 98.230469 C 161.5 98.230469 160.746094 98.390625 160.746094 99.09375 L 160.746094 100.5 C 160.746094 100.5 160.691406 102.015625 162.042969 101.957031 L 163.734375 101.886719 C 163.734375 101.886719 164.507812 113.105469 174.296875 113.105469 C 174.761719 113.105469 175.222656 113.09375 175.675781 113.035156 C 178.753906 112.652344 181.988281 111.003906 183.652344 108.304688 C 184.480469 106.964844 185.011719 103.945312 186.988281 103.820312 C 188.960938 103.945312 189.496094 106.964844 190.324219 108.304688 C 191.988281 111.003906 195.222656 112.652344 198.296875 113.035156 C 198.753906 113.09375 199.214844 113.105469 199.675781 113.105469 C 209.46875 113.105469 210.242188 101.886719 210.242188 101.886719 L 211.933594 101.957031 C 213.28125 102.015625 213.230469 100.5 213.230469 100.5 "/>
<path style=" stroke:none;fill-rule:nonzero;fill:rgb(76.078796%,92.158508%,94.119263%);fill-opacity:1;" d="M 174.164062 111.613281 C 173.371094 111.613281 172.574219 111.53125 171.808594 111.332031 C 168.519531 110.46875 166.878906 107.769531 166.066406 105.488281 C 166.335938 105.425781 166.589844 105.378906 166.824219 105.335938 C 167.597656 105.195312 168.382812 105.136719 169.167969 105.070312 L 183.375 103.820312 C 183.074219 105.265625 182.472656 106.679688 181.667969 107.886719 C 180.203125 110.09375 177.808594 111.328125 175.292969 111.5625 C 174.917969 111.59375 174.542969 111.613281 174.164062 111.613281 M 165.390625 102.828125 C 165.308594 102.292969 165.289062 101.964844 165.289062 101.964844 C 165.277344 101.855469 165.269531 101.746094 165.265625 101.644531 L 171.117188 102.15625 L 167.617188 102.484375 C 167.617188 102.484375 166.652344 102.519531 165.390625 102.828125 M 183.316406 100.390625 L 167.464844 98.917969 C 167.957031 98.722656 168.34375 98.652344 168.34375 98.652344 C 170.515625 98.160156 172.585938 97.988281 174.414062 97.988281 C 178.710938 97.988281 181.691406 98.941406 181.691406 98.941406 C 182.546875 99.257812 183.042969 99.78125 183.316406 100.390625 "/>
<path style=" stroke:none;fill-rule:nonzero;fill:rgb(41.958618%,40.779114%,44.309998%);fill-opacity:1;" d="M 171.117188 102.15625 L 165.265625 101.644531 C 165.265625 101.636719 165.265625 101.628906 165.265625 101.621094 C 165.265625 100.0625 166.554688 99.277344 167.464844 98.917969 L 183.316406 100.390625 C 183.40625 100.589844 183.46875 100.792969 183.511719 101.003906 L 171.117188 102.15625 "/>
<path style=" stroke:none;fill-rule:nonzero;fill:rgb(41.958618%,40.779114%,44.309998%);fill-opacity:1;" d="M 166.066406 105.488281 C 165.695312 104.441406 165.496094 103.480469 165.390625 102.828125 C 166.652344 102.519531 167.617188 102.484375 167.617188 102.484375 L 171.117188 102.15625 L 183.511719 101.003906 C 183.578125 101.304688 183.605469 101.621094 183.605469 101.933594 C 183.605469 102.523438 183.511719 103.117188 183.410156 103.644531 C 183.398438 103.707031 183.386719 103.761719 183.375 103.820312 L 169.167969 105.070312 C 168.382812 105.136719 167.597656 105.195312 166.824219 105.335938 C 166.589844 105.378906 166.335938 105.425781 166.066406 105.488281 "/>
<path style=" stroke:none;fill-rule:nonzero;fill:rgb(41.958618%,40.779114%,44.309998%);fill-opacity:1;" d="M 174.164062 111.613281 C 173.371094 111.613281 172.574219 111.53125 171.808594 111.332031 C 165.769531 109.746094 165.289062 101.964844 165.289062 101.964844 C 165.273438 101.847656 165.265625 101.730469 165.265625 101.621094 C 165.265625 101.628906 165.265625 101.636719 165.265625 101.644531 C 165.269531 101.746094 165.277344 101.855469 165.289062 101.964844 C 165.289062 101.964844 165.308594 102.292969 165.390625 102.828125 C 165.496094 103.480469 165.695312 104.441406 166.066406 105.488281 C 166.878906 107.769531 168.519531 110.46875 171.808594 111.332031 C 172.574219 111.53125 173.371094 111.613281 174.164062 111.613281 C 174.542969 111.613281 174.917969 111.59375 175.292969 111.5625 C 177.808594 111.328125 180.203125 110.09375 181.667969 107.886719 C 182.472656 106.679688 183.074219 105.265625 183.375 103.820312 C 183.386719 103.761719 183.398438 103.707031 183.410156 103.644531 C 183.511719 103.117188 183.605469 102.523438 183.605469 101.933594 C 183.605469 102.523438 183.511719 103.117188 183.410156 103.644531 C 183.121094 105.148438 182.507812 106.628906 181.667969 107.886719 C 180.203125 110.09375 177.808594 111.328125 175.292969 111.5625 C 174.917969 111.59375 174.542969 111.613281 174.164062 111.613281 "/>
<path style=" stroke:none;fill-rule:nonzero;fill:rgb(76.078796%,92.158508%,94.119263%);fill-opacity:1;" d="M 199.808594 111.613281 C 199.433594 111.613281 199.054688 111.59375 198.683594 111.5625 C 196.167969 111.328125 193.773438 110.09375 192.304688 107.886719 C 191.511719 106.691406 190.914062 105.296875 190.609375 103.871094 L 204.277344 105.070312 C 205.0625 105.136719 205.847656 105.195312 206.621094 105.335938 C 206.992188 105.402344 207.421875 105.488281 207.863281 105.613281 C 207.035156 107.867188 205.394531 110.484375 202.167969 111.332031 C 201.402344 111.53125 200.605469 111.613281 199.808594 111.613281 M 208.5625 102.964844 C 207.0625 102.53125 205.828125 102.484375 205.828125 102.484375 L 202.328125 102.15625 L 208.707031 101.597656 C 208.707031 101.605469 208.707031 101.613281 208.707031 101.621094 C 208.707031 101.730469 208.703125 101.847656 208.6875 101.964844 C 208.6875 101.964844 208.664062 102.351562 208.5625 102.964844 M 190.683594 100.339844 C 190.957031 99.75 191.453125 99.25 192.285156 98.941406 C 192.285156 98.941406 195.269531 97.988281 199.5625 97.988281 C 201.390625 97.988281 203.457031 98.160156 205.636719 98.652344 C 205.636719 98.652344 205.964844 98.714844 206.410156 98.878906 L 190.683594 100.339844 "/>
<path style=" stroke:none;fill-rule:nonzero;fill:rgb(41.958618%,40.779114%,44.309998%);fill-opacity:1;" d="M 207.863281 105.613281 C 207.421875 105.488281 206.992188 105.402344 206.621094 105.335938 C 205.847656 105.195312 205.0625 105.136719 204.277344 105.070312 L 190.609375 103.871094 C 190.59375 103.796875 190.578125 103.722656 190.566406 103.644531 C 190.539062 103.5 190.511719 103.351562 190.484375 103.199219 L 202.328125 102.15625 L 205.828125 102.484375 C 205.828125 102.484375 207.0625 102.53125 208.5625 102.964844 C 208.449219 103.636719 208.238281 104.585938 207.863281 105.613281 "/>
<path style=" stroke:none;fill-rule:nonzero;fill:rgb(41.958618%,40.779114%,44.309998%);fill-opacity:1;" d="M 190.484375 103.199219 C 190.421875 102.792969 190.371094 102.359375 190.371094 101.933594 C 190.371094 101.378906 190.453125 100.828125 190.683594 100.339844 L 206.410156 98.878906 C 207.316406 99.21875 208.691406 99.996094 208.707031 101.597656 L 202.328125 102.15625 L 190.484375 103.199219 "/>
<path style=" stroke:none;fill-rule:nonzero;fill:rgb(41.958618%,40.779114%,44.309998%);fill-opacity:1;" d="M 199.808594 111.613281 C 199.433594 111.613281 199.054688 111.59375 198.683594 111.5625 C 196.167969 111.328125 193.773438 110.09375 192.304688 107.886719 C 191.46875 106.628906 190.851562 105.148438 190.566406 103.644531 C 190.464844 103.117188 190.371094 102.523438 190.371094 101.933594 C 190.371094 102.359375 190.421875 102.792969 190.484375 103.199219 C 190.511719 103.351562 190.539062 103.5 190.566406 103.644531 C 190.578125 103.722656 190.59375 103.796875 190.609375 103.871094 C 190.914062 105.296875 191.511719 106.691406 192.304688 107.886719 C 193.773438 110.09375 196.167969 111.328125 198.683594 111.5625 C 199.054688 111.59375 199.433594 111.613281 199.808594 111.613281 C 200.605469 111.613281 201.402344 111.53125 202.167969 111.332031 C 205.394531 110.484375 207.035156 107.867188 207.863281 105.613281 C 208.238281 104.585938 208.449219 103.636719 208.5625 102.964844 C 208.664062 102.351562 208.6875 101.964844 208.6875 101.964844 C 208.703125 101.847656 208.707031 101.730469 208.707031 101.621094 C 208.707031 101.730469 208.703125 101.847656 208.6875 101.964844 C 208.6875 101.964844 208.207031 109.746094 202.167969 111.332031 C 201.402344 111.53125 200.605469 111.613281 199.808594 111.613281 "/>
<path style=" stroke:none;fill-rule:nonzero;fill:rgb(10.198975%,10.978699%,13.328552%);fill-opacity:1;" d="M 68.527344 71.90625 L 54.574219 43.34375 L 112.355469 15.09375 L 126.308594 43.65625 L 100.058594 63.191406 L 68.527344 71.90625 "/>
<path style=" stroke:none;fill-rule:nonzero;fill:rgb(38.42926%,61.569214%,65.879822%);fill-opacity:1;" d="M 93.28125 24.421875 L 112.355469 15.09375 L 93.28125 24.421875 "/>
<path style=" stroke:none;fill-rule:nonzero;fill:rgb(7.839966%,8.628845%,10.198975%);fill-opacity:1;" d="M 68.527344 71.90625 L 64.992188 64.675781 C 72.15625 63.941406 74.1875 63.898438 83.761719 62.339844 C 88.234375 61.613281 93.605469 60.601562 97.589844 58.132812 C 100.488281 56.335938 105.164062 52.621094 107.148438 49.867188 C 108.785156 47.597656 111.242188 45.683594 111.019531 42.707031 C 110.722656 38.675781 108.714844 34.921875 106.523438 31.605469 C 104.601562 28.691406 102.195312 26.375 98.75 25.425781 C 96.957031 24.929688 95.117188 24.671875 93.28125 24.421875 L 112.355469 15.09375 L 126.308594 43.65625 L 100.058594 63.191406 L 90 65.96875 L 72.578125 70.789062 L 69.277344 71.699219 L 68.527344 71.90625 "/>
<g clip-path="url(#clip14)" clip-rule="nonzero">
<path style=" stroke:none;fill-rule:nonzero;fill:rgb(5.488586%,5.488586%,6.269836%);fill-opacity:1;" d="M 137.199219 4.59375 L 90.011719 42.617188 L 31.03125 56.503906 L 30.238281 54.875 L 136.402344 2.96875 L 137.207031 4.613281 "/>
</g>
<g clip-path="url(#clip15)" clip-rule="nonzero">
<path style=" stroke:none;fill-rule:nonzero;fill:rgb(7.449341%,7.839966%,9.408569%);fill-opacity:1;" d="M 78.140625 18.320312 L 136.402344 2.96875 L 89.214844 40.992188 L 30.238281 54.875 L 78.140625 18.320312 "/>
</g>
<path style=" stroke:none;fill-rule:nonzero;fill:rgb(97.24884%,64.709473%,12.159729%);fill-opacity:1;" d="M 83.484375 29.257812 L 30.152344 55.335938 L 30.152344 79.503906 L 31.039062 79.503906 L 31.039062 55.886719 L 83.871094 30.054688 L 83.484375 29.257812 "/>
<path style=" stroke:none;fill-rule:nonzero;fill:rgb(82.749939%,82.348633%,82.348633%);fill-opacity:1;" d="M 80.773438 30.316406 C 81.105469 30.996094 82.539062 30.96875 83.976562 30.269531 C 85.414062 29.5625 86.316406 28.445312 85.984375 27.769531 C 85.65625 27.09375 83.914062 26.488281 82.476562 27.191406 C 81.035156 27.898438 80.445312 29.640625 80.773438 30.316406 "/>
<path style=" stroke:none;fill-rule:nonzero;fill:rgb(97.24884%,64.709473%,12.159729%);fill-opacity:1;" d="M 33.859375 93.027344 C 33.902344 93.25 34.097656 93.386719 34.296875 93.339844 C 34.496094 93.292969 34.617188 93.074219 34.574219 92.855469 L 32.816406 84.097656 C 32.769531 83.875 32.574219 83.738281 32.375 83.785156 C 32.179688 83.832031 32.054688 84.050781 32.097656 84.269531 L 33.859375 93.027344 "/>
<path style=" stroke:none;fill-rule:nonzero;fill:rgb(96.469116%,55.288696%,12.939453%);fill-opacity:1;" d="M 32.480469 93.027344 C 32.511719 93.25 32.695312 93.410156 32.894531 93.378906 C 33.097656 93.351562 33.238281 93.148438 33.207031 92.925781 L 32.125 84.035156 C 32.097656 83.8125 31.910156 83.65625 31.710938 83.6875 C 31.511719 83.714844 31.367188 83.917969 31.398438 84.144531 L 32.480469 93.027344 "/>
<path style=" stroke:none;fill-rule:nonzero;fill:rgb(98.81897%,80.778503%,10.5896%);fill-opacity:1;" d="M 31.335938 93.027344 C 31.347656 93.253906 31.523438 93.425781 31.726562 93.410156 C 31.925781 93.398438 32.078125 93.207031 32.066406 92.980469 L 31.558594 84.035156 C 31.546875 83.808594 31.371094 83.636719 31.167969 83.652344 C 30.964844 83.664062 30.8125 83.855469 30.824219 84.082031 L 31.335938 93.027344 "/>
<g clip-path="url(#clip16)" clip-rule="nonzero">
<path style=" stroke:none;fill-rule:nonzero;fill:rgb(97.24884%,64.709473%,12.159729%);fill-opacity:1;" d="M 28.285156 93.167969 C 28.25 93.386719 28.0625 93.539062 27.863281 93.5 C 27.664062 93.464844 27.527344 93.253906 27.5625 93.03125 L 28.878906 84.195312 C 28.910156 83.976562 29.101562 83.824219 29.300781 83.863281 C 29.5 83.902344 29.636719 84.109375 29.601562 84.332031 L 28.285156 93.167969 "/>
</g>
<path style=" stroke:none;fill-rule:nonzero;fill:rgb(96.469116%,55.288696%,12.939453%);fill-opacity:1;" d="M 29.65625 93.101562 C 29.640625 93.324219 29.464844 93.492188 29.265625 93.472656 C 29.0625 93.453125 28.910156 93.257812 28.925781 93.03125 L 29.566406 84.101562 C 29.578125 83.875 29.757812 83.710938 29.957031 83.730469 C 30.164062 83.75 30.3125 83.945312 30.296875 84.167969 L 29.65625 93.101562 "/>
<path style=" stroke:none;fill-rule:nonzero;fill:rgb(97.24884%,64.709473%,12.159729%);fill-opacity:1;" d="M 30.800781 93.042969 C 30.800781 93.265625 30.636719 93.445312 30.433594 93.445312 C 30.230469 93.441406 30.066406 93.257812 30.070312 93.03125 L 30.128906 84.070312 C 30.132812 83.84375 30.296875 83.664062 30.5 83.667969 C 30.703125 83.671875 30.867188 83.855469 30.863281 84.082031 L 30.800781 93.042969 "/>
<path style=" stroke:none;fill-rule:nonzero;fill:rgb(97.24884%,64.709473%,12.159729%);fill-opacity:1;" d="M 28.972656 83.597656 C 29 84.703125 29.914062 85.574219 31.023438 85.550781 C 32.128906 85.519531 33.003906 84.601562 32.976562 83.496094 L 32.898438 80.367188 C 32.871094 79.261719 31.953125 78.386719 30.84375 78.414062 C 29.738281 78.441406 28.867188 79.359375 28.894531 80.46875 L 28.972656 83.597656 "/>
<path style=" stroke:none;fill-rule:nonzero;fill:rgb(97.648621%,65.098572%,5.488586%);fill-opacity:1;" d="M 30.96875 85.550781 C 30.949219 85.550781 30.929688 85.550781 30.910156 85.546875 C 30.929688 85.550781 30.949219 85.550781 30.96875 85.550781 "/>
<path style=" stroke:none;fill-rule:nonzero;fill:rgb(53.329468%,66.268921%,21.569824%);fill-opacity:1;" d="M 29.011719 83.945312 C 28.988281 83.832031 28.972656 83.714844 28.972656 83.597656 L 28.957031 83.066406 L 28.972656 83.597656 C 28.972656 83.714844 28.988281 83.832031 29.011719 83.945312 "/>
<path style=" stroke:none;fill-rule:nonzero;fill:rgb(96.469116%,52.938843%,7.449341%);fill-opacity:1;" d="M 29.507812 84.910156 C 29.261719 84.648438 29.085938 84.316406 29.011719 83.945312 C 29.085938 84.316406 29.261719 84.648438 29.507812 84.910156 "/>
<path style=" stroke:none;fill-rule:nonzero;fill:rgb(95.689392%,45.489502%,8.628845%);fill-opacity:1;" d="M 30.121094 85.363281 C 29.890625 85.25 29.679688 85.097656 29.507812 84.910156 C 29.679688 85.097656 29.890625 85.25 30.121094 85.363281 "/>
<path style=" stroke:none;fill-rule:nonzero;fill:rgb(53.329468%,66.268921%,21.569824%);fill-opacity:1;" d="M 32.898438 80.367188 C 32.894531 80.214844 32.875 80.070312 32.839844 79.929688 C 32.875 80.070312 32.894531 80.214844 32.898438 80.367188 M 32.839844 79.925781 C 32.835938 79.925781 32.835938 79.925781 32.835938 79.921875 C 32.835938 79.925781 32.835938 79.925781 32.839844 79.925781 M 32.835938 79.921875 L 32.835938 79.921875 "/>
<path style=" stroke:none;fill-rule:nonzero;fill:rgb(96.469116%,52.938843%,7.449341%);fill-opacity:1;" d="M 30.855469 85.546875 C 30.59375 85.53125 30.347656 85.46875 30.121094 85.363281 C 30.347656 85.46875 30.59375 85.53125 30.855469 85.546875 "/>
<path style=" stroke:none;fill-rule:nonzero;fill:rgb(96.469116%,52.938843%,7.449341%);fill-opacity:1;" d="M 30.96875 85.550781 C 30.949219 85.550781 30.929688 85.550781 30.910156 85.546875 C 30.890625 85.546875 30.871094 85.546875 30.855469 85.546875 C 30.59375 85.53125 30.347656 85.46875 30.121094 85.363281 C 29.890625 85.25 29.679688 85.097656 29.507812 84.910156 C 29.261719 84.648438 29.085938 84.316406 29.011719 83.945312 C 28.988281 83.832031 28.972656 83.714844 28.972656 83.597656 L 28.957031 83.066406 C 29.300781 83.445312 29.742188 83.714844 30.289062 83.75 C 30.324219 83.753906 30.363281 83.753906 30.394531 83.753906 C 31.234375 83.753906 31.96875 83.136719 32.136719 82.308594 C 32.371094 81.160156 32.371094 79.097656 31.230469 78.445312 C 32.011719 78.574219 32.636719 79.15625 32.835938 79.914062 C 32.835938 79.917969 32.835938 79.917969 32.835938 79.921875 C 32.835938 79.925781 32.835938 79.925781 32.839844 79.925781 C 32.839844 79.929688 32.839844 79.929688 32.839844 79.929688 C 32.875 80.070312 32.894531 80.214844 32.898438 80.367188 L 32.976562 83.496094 C 32.976562 83.511719 32.976562 83.53125 32.976562 83.546875 C 32.976562 83.796875 32.929688 84.035156 32.847656 84.257812 C 32.722656 84.578125 32.519531 84.863281 32.261719 85.082031 C 31.925781 85.363281 31.496094 85.539062 31.023438 85.550781 C 31.003906 85.550781 30.988281 85.550781 30.96875 85.550781 "/>
</g>
</svg>
